<?xml version="1.0" standalone="no"?>
<!DOCTYPE svg PUBLIC "-//W3C//DTD SVG 20010904//EN"
 "http://www.w3.org/TR/2001/REC-SVG-20010904/DTD/svg10.dtd">
<svg version="1.0" xmlns="http://www.w3.org/2000/svg"
 width="1000.000000pt" height="1000.000000pt" viewBox="0 0 1000.000000 1000.000000"
 preserveAspectRatio="xMidYMid meet">
<metadata>
Created by potrace 1.14, written by Peter Selinger 2001-2017
</metadata>
<g transform="translate(0.000000,1000.000000) scale(0.100000,-0.100000)"
fill="#000000" stroke="none">
<path d="M6906 9163 c-1 -2 -31 -5 -67 -8 -174 -15 -207 -22 -334 -75 -196
-82 -246 -115 -414 -275 -123 -117 -258 -340 -316 -523 -21 -64 -43 -135 -51
-158 -20 -64 -28 -147 -28 -309 l0 -150 48 -140 c53 -153 86 -226 166 -361 58
-98 97 -156 129 -193 12 -13 21 -27 21 -30 0 -3 15 -22 33 -41 18 -19 52 -60
77 -90 25 -30 74 -81 109 -115 36 -33 86 -80 112 -105 78 -73 88 -82 219 -186
116 -92 301 -229 545 -403 123 -87 286 -207 345 -254 8 -7 35 -28 60 -47 25
-19 56 -45 70 -56 14 -12 61 -53 105 -90 262 -224 512 -532 725 -894 5 -8 34
-55 64 -105 134 -224 247 -449 306 -611 53 -147 57 -162 75 -274 3 -25 9 -57
11 -72 19 -118 21 -189 19 -453 -4 -298 -6 -341 -25 -465 -5 -36 -12 -85 -15
-110 -12 -87 -75 -395 -91 -440 -9 -25 -25 -65 -36 -89 -10 -24 -27 -64 -38
-90 -71 -181 -258 -423 -444 -575 -65 -54 -259 -171 -323 -196 -32 -12 -67
-26 -78 -30 -62 -25 -177 -60 -220 -66 -27 -3 -59 -8 -70 -10 -184 -34 -546
-13 -727 42 -10 3 -30 7 -45 10 -37 6 -200 60 -293 96 -89 35 -219 100 -325
163 -191 113 -490 385 -668 610 -196 246 -398 696 -503 1120 -39 160 -97 456
-89 463 2 2 0 12 -4 21 -5 9 -12 39 -15 66 -3 28 -8 61 -10 74 -3 13 -8 49
-11 80 -3 31 -7 63 -10 71 -2 8 -7 40 -10 70 -3 30 -8 69 -10 85 -4 35 -14
123 -20 180 -10 90 -14 134 -20 205 -3 41 -8 86 -11 100 -4 23 -10 98 -19 221
-1 25 -5 67 -9 95 -3 27 -8 85 -12 129 -3 44 -7 91 -9 105 -1 14 -6 63 -9 110
-4 47 -9 101 -12 120 -2 20 -6 58 -9 85 -5 56 -23 221 -30 268 -2 18 -7 56 -9
86 -3 29 -8 68 -10 85 -3 17 -8 51 -11 76 -3 25 -13 95 -21 155 -9 61 -18 124
-20 140 -4 30 -7 51 -25 160 -30 180 -137 639 -185 798 -14 45 -27 87 -28 92
-44 192 -287 759 -415 969 -23 36 -41 69 -41 72 0 23 -232 338 -290 394 -191
184 -266 233 -495 323 -108 42 -142 49 -310 63 -153 13 -197 10 -370 -22 -140
-25 -301 -91 -443 -181 -29 -18 -56 -33 -61 -33 -5 0 -11 -3 -13 -7 -1 -5 -30
-30 -63 -58 -33 -27 -73 -61 -89 -75 -143 -122 -295 -326 -391 -525 -39 -82
-82 -179 -93 -215 -35 -104 -80 -288 -73 -298 3 -5 107 -59 231 -119 247 -122
674 -331 1870 -921 246 -121 311 -156 295 -162 -11 -5 -47 -18 -80 -31 -98
-36 -289 -134 -449 -231 -83 -50 -152 -95 -154 -100 -2 -4 -7 -8 -12 -8 -9 0
-190 -123 -307 -207 -149 -108 -413 -324 -568 -463 -83 -75 -346 -340 -415
-419 -36 -41 -72 -82 -80 -91 -60 -65 -216 -273 -307 -410 -221 -333 -379
-713 -422 -1016 -7 -43 -14 -95 -17 -114 -8 -52 -9 -275 -1 -350 13 -117 26
-206 37 -250 5 -19 12 -51 15 -70 21 -120 92 -363 157 -530 146 -376 380 -705
648 -908 41 -31 77 -60 78 -64 2 -5 8 -8 12 -8 5 0 28 -13 52 -29 76 -51 242
-130 351 -166 196 -65 347 -89 567 -90 181 0 266 8 420 41 41 9 80 17 85 19
34 7 111 30 185 56 220 78 422 188 630 343 98 73 316 283 386 371 21 28 41 52
44 55 7 7 38 51 97 140 113 168 208 381 263 590 14 53 17 64 34 150 7 36 16
58 19 50 4 -8 20 -51 36 -95 16 -44 37 -98 47 -120 10 -22 18 -42 19 -45 19
-66 235 -474 274 -517 9 -10 29 -36 46 -58 16 -21 36 -46 45 -55 8 -9 33 -38
54 -65 75 -94 316 -324 447 -426 232 -181 432 -284 764 -395 97 -32 120 -37
195 -50 19 -3 38 -8 42 -10 15 -10 166 -34 255 -41 120 -10 334 -9 428 1 370
40 713 208 991 483 184 183 303 363 408 620 40 96 77 222 92 313 3 14 11 57
19 95 8 39 16 84 19 100 5 32 24 165 40 280 20 146 24 625 7 775 -32 274 -49
342 -141 584 -98 257 -423 810 -665 1131 -109 145 -323 374 -444 475 -29 25
-63 53 -75 64 -97 86 -377 296 -691 521 -261 187 -336 246 -328 259 12 19 106
150 117 163 6 7 26 34 44 60 18 26 73 104 123 173 49 69 97 136 107 150 17 24
239 335 268 375 8 11 55 76 104 145 49 69 95 133 102 142 7 9 20 26 28 38 8
12 48 67 88 123 40 56 81 113 90 126 9 13 33 45 52 71 19 27 42 58 50 70 8 12
32 45 53 73 20 28 37 53 37 56 0 4 10 17 23 31 12 14 38 49 59 78 l36 53 -34
62 c-84 147 -133 201 -289 321 -147 113 -194 138 -410 222 -68 26 -265 67
-382 80 -61 6 -163 11 -167 7z"/>
</g>
</svg>
