<?xml version="1.0" encoding="UTF-8"?>
<svg viewBox="0 0 64 65" xmlns="http://www.w3.org/2000/svg" xmlns:xlink="http://www.w3.org/1999/xlink" version="1.1">
 <g id="Close Icon">
  <path id="Path" d="M2.299 62.336 Q3.471 63.459 5.131 63.459 6.791 63.459 7.914 62.336 L31.84 38.361 55.814 62.336 Q56.937 63.459 58.598 63.483 60.258 63.508 61.381 62.336 62.504 61.164 62.504 59.528 62.504 57.893 61.381 56.77 L37.406 32.795 61.381 8.869 Q62.504 7.697 62.528 6.037 62.553 4.377 61.381 3.254 60.209 2.131 58.573 2.131 56.937 2.131 55.814 3.254 L31.84 27.229 7.914 3.254 Q6.791 2.131 5.106 2.131 3.422 2.131 2.299 3.254 1.176 4.426 1.176 6.062 1.176 7.697 2.299 8.869 L26.273 32.795 2.299 56.77 Q1.176 57.893 1.176 59.553 1.176 61.213 2.299 62.336 Z" fill="#000000" fill-opacity="1" stroke="none"/>
 </g>
</svg>
