<?xml version="1.0" encoding="UTF-8"?>
<svg viewBox="1 0 84 82" xmlns="http://www.w3.org/2000/svg" xmlns:xlink="http://www.w3.org/1999/xlink" version="1.1">
 <g id="Cross">
  <path id="Path" d="M4.279 79.789 Q5.515 80.992 7.15 81.394 8.785 81.796 10.397 81.394 12.01 80.992 13.166 79.836 L42.273 50.729 71.349 79.821 Q72.537 81.008 74.149 81.402 75.761 81.796 77.39 81.395 79.019 80.995 80.222 79.774 81.424 78.572 81.825 76.952 82.225 75.331 81.84 73.719 81.455 72.107 80.283 70.92 L51.207 41.795 80.283 12.719 Q81.455 11.531 81.857 9.919 82.259 8.307 81.841 6.695 81.424 5.083 80.222 3.88 78.985 2.644 77.373 2.243 75.761 1.843 74.149 2.228 72.537 2.613 71.349 3.818 L42.273 32.895 13.166 3.803 Q12.01 2.629 10.381 2.244 8.753 1.859 7.117 2.244 5.481 2.629 4.279 3.865 3.092 5.067 2.707 6.695 2.322 8.323 2.707 9.943 3.092 11.563 4.232 12.703 L33.339 41.795 4.232 70.951 Q3.092 72.092 2.682 73.704 2.273 75.316 2.665 76.952 3.058 78.587 4.279 79.789 Z" fill="#000000" fill-opacity="1" stroke="none"/>
 </g>
</svg>
