<?xml version="1.0" encoding="UTF-8"?>
<svg viewBox="0 0 100 86" xmlns="http://www.w3.org/2000/svg" xmlns:xlink="http://www.w3.org/1999/xlink" version="1.1">
 <g id="Home">
  <path id="Path" d="M14.321 76.263 Q14.321 80.706 17.116 83.343 19.912 85.979 24.648 85.979 L75.307 85.979 Q80.044 85.979 82.839 83.343 85.635 80.706 85.635 76.263 L85.635 41.091 52.456 13.259 Q51.333 12.282 50.002 12.282 48.672 12.282 47.549 13.259 L14.321 41.091 Z M-0.204 42.521 Q-0.204 45.194 1.26 47.147 3.225 49.1 6.191 49.6 7.314 49.6 8.388 49.099 9.463 48.599 10.415 47.817 L47.866 16.396 Q49.99 14.59 52.163 16.396 L89.565 47.817 Q90.517 48.599 91.604 49.099 92.69 49.6 93.813 49.6 96.657 49.1 98.658 47.245 100.16 45.39 100.16 42.595 99.66 40.007 97.06 38.249 L57.046 4.631 Q53.847 1.945 50.014 1.945 46.181 1.945 43.008 4.631 L2.92 38.273 C1.504 39.478 -0.204 40.894 -0.204 42.521 Z" fill="#231f20" fill-opacity="1" stroke="none"/>
 </g>
</svg>
